# xmcd
#
# Track frame offsets:
# 182
# 16050
# 42257
# 70035
# 84242
# 99137
# 115725
# 127425
# 143800
# 163800
# 190725
#
# Disc length: 2673 seconds
#
# Revision: 1
# Processed by: cddbd v1.5PL3 Copyright (c) Steve Scherf et al.
# Submitted via: inCDius 2.0b9
#
DISCID=890a6f0b
DTITLE=Sarasota Slim - Living In My Suitcase
DYEAR=1900
DGENRE=
TTITLE0=Living In My Suitcase
TTITLE1=You Were Wrong
TTITLE2=Rolling Stone
TTITLE3=Crabs In a Bucket
TTITLE4=Siesta Solleone
TTITLE5=Grind That Axe
TTITLE6=Trail of Tears
TTITLE7=Shuffleboard Stroll (Revisited)
TTITLE8=Real Good Woman
TTITLE9=All Your Love
TTITLE10=Sulfer Water
EXTD=
EXTT0=
EXTT1=
EXTT2=
EXTT3=
EXTT4=
EXTT5=
EXTT6=
EXTT7=
EXTT8=
EXTT9=
EXTT10=
PLAYORDER=
